<?xml version="1.0" encoding="iso-8859-1"?>
<!-- Uploaded to: SVG Repo, www.svgrepo.com, Generator: SVG Repo Mixer Tools -->
<svg fill="#000000" height="800px" width="800px" version="1.1" id="Layer_1" xmlns="http://www.w3.org/2000/svg" xmlns:xlink="http://www.w3.org/1999/xlink" 
	 viewBox="0 0 470 470" xml:space="preserve">
<g>
	<g>
		<g>
			<path d="M181.753,255.724c-8.682,0-16.843,3.381-22.981,9.52c-12.671,12.672-12.671,33.29,0,45.961
				c6.139,6.14,14.3,9.52,22.981,9.52c8.681,0,16.843-3.38,22.981-9.519c12.671-12.672,12.671-33.29-0.001-45.963
				C198.595,259.105,190.433,255.724,181.753,255.724z M198.22,294.085l-0.557-0.557c-2.93-2.928-7.678-2.928-10.607,0
				c-2.929,2.93-2.929,7.678,0,10.607l0.564,0.564c-1.861,0.661-3.834,1.025-5.867,1.025c-2.034,0-4.007-0.364-5.867-1.025
				l0.564-0.564c2.929-2.93,2.929-7.678,0-10.607c-2.93-2.928-7.678-2.928-10.607,0l-0.557,0.557c-1.34-3.786-1.34-7.933,0-11.719
				l0.556,0.557c1.465,1.464,3.385,2.196,5.304,2.196s3.839-0.732,5.304-2.196c2.929-2.93,2.929-7.678,0-10.607l-0.564-0.564
				c1.861-0.661,3.834-1.025,5.867-1.025c2.033,0,4.006,0.364,5.867,1.025l-0.564,0.564c-2.929,2.93-2.929,7.678,0,10.607
				c1.465,1.464,3.385,2.196,5.304,2.196s3.839-0.732,5.304-2.196l0.556-0.557C199.56,286.152,199.56,290.299,198.22,294.085z"/>
			<path d="M52.056,347.917c-2.93-2.928-7.678-2.928-10.607,0c-2.929,2.93-2.929,7.678,0,10.607l70.004,70.004
				c1.465,1.464,3.385,2.196,5.304,2.196s3.839-0.732,5.304-2.196c2.929-2.93,2.929-7.678,0-10.607L52.056,347.917z"/>
			<path d="M459.803,44.219l8.455-10.225c2.465-2.98,2.258-7.348-0.477-10.083L446.066,2.196c-2.735-2.733-7.101-2.941-10.083-0.477
				l-10.225,8.455l-7.195-7.196c-2.929-2.93-7.678-2.929-10.606-0.001c-2.93,2.929-2.93,7.678-0.001,10.606l6.192,6.192
				l-12.67,10.477l-7.197-7.196c-2.928-2.928-7.677-2.929-10.606,0.001c-2.929,2.929-2.929,7.678,0.001,10.606l6.191,6.19
				L377.198,50.33l-7.196-7.196c-2.93-2.928-7.678-2.928-10.607,0c-2.929,2.93-2.929,7.678,0,10.607l6.191,6.191l-9.076,7.505
				c-0.187,0.154-0.317,0.271-0.443,0.391L237.383,180.793c-8.605-2.931-17.582-4.43-26.76-4.43
				c-22.166,0-43.005,8.632-58.677,24.305c-3.28,3.279-6.313,6.866-9.011,10.662c-0.421,0.59-0.857,1.203-1.308,1.836
				l-14.525,20.423l-86.556,61.542c-4.404,3.141-8.562,6.658-12.361,10.456c-37.551,37.552-37.551,98.652,0,136.205
				C46.377,459.982,70.563,470,96.288,470c25.726,0,49.911-10.018,68.103-28.208c3.811-3.812,7.329-7.975,10.457-12.375
				c0.461-0.645,0.979-1.372,1.579-2.217l59.971-84.33l22.264-15.83c3.796-2.707,7.378-5.737,10.649-9.007
				c22.519-22.519,30.059-55.579,19.876-85.441l112.962-118.68c0.12-0.126,0.236-0.257,0.348-0.392
				c0.044-0.054,7.548-9.128,7.548-9.128l6.191,6.191c1.465,1.464,3.385,2.196,5.304,2.196c1.919,0,3.839-0.732,5.304-2.196
				c2.929-2.93,2.929-7.678,0-10.607l-7.196-7.196l10.477-12.669l6.19,6.191c1.465,1.465,3.384,2.197,5.304,2.197
				c1.919,0,3.839-0.732,5.303-2.196c2.93-2.929,2.93-7.678,0.001-10.606l-7.196-7.197l10.477-12.669l6.192,6.191
				c1.464,1.464,3.384,2.196,5.303,2.196s3.839-0.732,5.304-2.197c2.929-2.929,2.929-7.678-0.001-10.606L459.803,44.219z
				 M258.704,307.426c-2.686,2.685-5.631,5.176-8.744,7.396l-23.286,16.557c-0.684,0.485-1.28,1.083-1.767,1.766l-2.872,4.039
				c-23.276,32.734-58.406,82.137-59.37,83.483c-0.015,0.02-0.028,0.039-0.042,0.059c-2.646,3.72-5.619,7.239-8.84,10.459
				C138.426,446.543,118.007,455,96.288,455s-42.138-8.458-57.495-23.814c-31.703-31.704-31.703-83.289,0-114.991
				c3.212-3.213,6.732-6.19,10.454-8.845l87.579-62.27c0.684-0.485,1.28-1.082,1.767-1.766
				c8.856-12.454,16.151-22.711,16.533-23.244c0.011-0.017,0.022-0.032,0.034-0.048c2.215-3.114,4.701-6.058,7.393-8.748
				c12.839-12.84,29.911-19.911,48.07-19.911c8.386,0,16.567,1.509,24.343,4.486l39.162,39.162
				C283.737,260.095,277.761,288.368,258.704,307.426z M280.398,220.068L249.91,189.58L361.107,83.74l25.131,25.131L280.398,220.068
				z M396.189,97.608l-23.82-23.82l67.915-56.16l12.065,12.065L396.189,97.608z"/>
		</g>
	</g>
</g>
</svg>